<svg viewBox="0 0 100 100" xmlns="http://www.w3.org/2000/svg">
  <!-- Straw Hat -->
  <ellipse cx="50" cy="28" rx="30" ry="8" fill="#D4A853" stroke="#2a2a2a" stroke-width="2"/>
  <path d="M30 28 Q32 12 50 10 Q68 12 70 28" fill="#D4A853" stroke="#2a2a2a" stroke-width="2"/>
  <line x1="30" y1="24" x2="70" y2="24" stroke="#CC3333" stroke-width="4"/>
  <!-- Skull -->
  <circle cx="50" cy="48" r="14" fill="#2a2a2a"/>
  <!-- Eyes -->
  <circle cx="44" cy="46" r="4" fill="#f5f0e1"/>
  <circle cx="56" cy="46" r="4" fill="#f5f0e1"/>
  <!-- Nose -->
  <ellipse cx="50" cy="52" rx="1.5" ry="2" fill="#f5f0e1"/>
  <!-- Grin -->
  <path d="M42 56 Q46 62 50 56 Q54 62 58 56" fill="none" stroke="#f5f0e1" stroke-width="1.5" stroke-linecap="round"/>
  <!-- Crossbones -->
  <line x1="22" y1="68" x2="78" y2="88" stroke="#2a2a2a" stroke-width="5" stroke-linecap="round"/>
  <line x1="78" y1="68" x2="22" y2="88" stroke="#2a2a2a" stroke-width="5" stroke-linecap="round"/>
  <!-- Bone ends -->
  <circle cx="20" cy="67" r="3.5" fill="#2a2a2a"/>
  <circle cx="24" cy="69" r="3.5" fill="#2a2a2a"/>
  <circle cx="80" cy="67" r="3.5" fill="#2a2a2a"/>
  <circle cx="76" cy="69" r="3.5" fill="#2a2a2a"/>
  <circle cx="20" cy="89" r="3.5" fill="#2a2a2a"/>
  <circle cx="24" cy="87" r="3.5" fill="#2a2a2a"/>
  <circle cx="80" cy="89" r="3.5" fill="#2a2a2a"/>
  <circle cx="76" cy="87" r="3.5" fill="#2a2a2a"/>
</svg>
